<?xml version="1.0" encoding="iso-8859-1"?>
<!-- Uploaded to: SVG Repo, www.svgrepo.com, Generator: SVG Repo Mixer Tools -->
<!DOCTYPE svg PUBLIC "-//W3C//DTD SVG 1.1//EN" "http://www.w3.org/Graphics/SVG/1.1/DTD/svg11.dtd">
<svg fill="#0B1957" version="1.1" id="Capa_1" xmlns="http://www.w3.org/2000/svg" xmlns:xlink="http://www.w3.org/1999/xlink" 
	 width="800px" height="800px" viewBox="0 0 166.717 166.717"
	 xml:space="preserve">
<g>
	<g>
		<g>
			<path d="M3.603,128.627c-8.017-16.052-2.264-35.274,13.403-44.021c6.558-3.66,17.75-4.752,17.751-4.752
				c10.466-1.787,28.605-7.668,32.804-27.038c0.235-1.091,0.979-2.003,1.998-2.457s2.194-0.394,3.163,0.161l29.371,16.827
				c1.678,0.961,2.259,3.1,1.297,4.777c-0.961,1.679-3.102,2.256-4.776,1.297L73.138,58.826
				C68.095,73.465,54.803,83.532,35.959,86.75l0,0c0.001,0-10.271,1.135-15.661,4.031c-12.4,6.672-17.025,22.062-10.521,34.549
				c10.284,19.74,28.53,13.729,34.55,10.521c6.02-3.208,10.35-8.596,12.414-15.096c4.07-12.812-3.305-23.437-8.022-27.019
				c-1.54-1.17-1.68-3.448-0.438-4.933c1.241-1.481,3.447-1.678,4.931-0.438c3.2,2.68,15.728,13.826,10.229,34.426
				c-2.241,8.396-8.232,14.99-15.817,19.232C37.938,147.446,14.438,150.321,3.603,128.627z"/>
			<path d="M105.353,124.377c-9.443-14.957,0.727-31.937,1.29-32.834c16.706-26.562,6.607-33.807,2.808-36.534
				c-0.246-0.176-27.171-16.076-27.171-16.076c-1.666-0.98-2.223-3.125-1.241-4.791c0.979-1.667,3.127-2.222,4.791-1.242
				c0,0,27.448,16.267,27.7,16.421c4.618,2.834,19.252,13.811-0.96,45.947c-0.363,0.575-7.369,13.646-0.381,25.554
				c10.408,17.74,27.812,13.879,33.891,10.781c16.734-8.531,15.484-25.531,10.52-34.553c-5.573-10.118-17.074-15.484-28.313-12.863
				c-1.888,0.438-3.766-0.73-4.203-2.613c-0.438-1.882,0.729-3.765,2.612-4.204c14.312-3.339,29.085,3.438,36.081,16.389
				c5.165,9.562,8.915,33.188-13.4,44.021C138.088,143.254,118.814,145.696,105.353,124.377z"/>
		</g>
		<path d="M68.728,37.233c0-9.052-7.364-16.417-16.416-16.417c-9.055,0-16.418,7.365-16.418,16.417S43.256,53.65,52.312,53.65
			C61.363,53.65,68.728,46.285,68.728,37.233z M43.001,37.233c0-5.133,4.178-9.309,9.311-9.309c5.133,0,9.308,4.176,9.308,9.309
			s-4.175,9.309-9.308,9.309C47.179,46.542,43.001,42.365,43.001,37.233z"/>
	</g>
</g>
</svg>