<?xml version="1.0" encoding="iso-8859-1"?>
<!-- Uploaded to: SVG Repo, www.svgrepo.com, Generator: SVG Repo Mixer Tools -->
<!DOCTYPE svg PUBLIC "-//W3C//DTD SVG 1.1//EN" "http://www.w3.org/Graphics/SVG/1.1/DTD/svg11.dtd">
<svg fill="#0B1957" version="1.1" id="Capa_1" xmlns="http://www.w3.org/2000/svg" xmlns:xlink="http://www.w3.org/1999/xlink" 
	 width="800px" height="800px" viewBox="0 0 201.376 201.376"
	 xml:space="preserve">
<g>
	<g>
		<g>
			<path d="M0.646,173.647c-1.139-1.562-0.724-3.766,0.86-4.874c7.848-5.493,29.085-31.779,36.607-41.443
				c1.187-1.526,3.386-1.802,4.912-0.613c1.525,1.188,1.8,3.387,0.613,4.912c-1.13,1.453-27.804,35.662-38.117,42.881
				C4.911,174.936,2.223,175.808,0.646,173.647z"/>
			<path d="M73.935,175.686c-1.886-0.428-2.97-2.427-2.465-4.293c7.986-29.536-16.26-41.765-17.296-42.271
				c-9.708-5.041-15.193-11.943-16.381-20.556c-2.857-20.707,21.005-43.354,22.023-44.31c1.408-1.322,3.622-1.252,4.945,0.158
				c1.323,1.408,1.253,3.623-0.155,4.946c-0.223,0.209-22.249,21.136-19.877,38.258c0.875,6.312,4.995,11.303,12.595,15.25
				c0.229,0.109,30.382,15.3,20.904,50.351C77.806,174.78,76.306,176.224,73.935,175.686z"/>
			<path d="M158.364,74.668c-1.612-1.064-1.801-3.387-0.612-4.912c1.132-1.453,27.805-35.662,38.117-42.881
				c1.582-1.108,3.767-0.724,4.875,0.86c1.106,1.583,0.724,3.766-0.86,4.874c-7.849,5.493-29.085,31.78-36.606,41.445
				C162.585,74.942,160.722,76.224,158.364,74.668z"/>
			<path d="M136.63,136.967c-1.435-1.298-1.254-3.623,0.154-4.946c0.223-0.209,22.25-21.136,19.877-38.257
				c-0.875-6.314-4.994-11.303-12.595-15.251c-0.229-0.11-30.384-15.299-20.903-50.35c0.504-1.865,2.426-2.965,4.291-2.465
				c1.866,0.505,2.971,2.427,2.466,4.293c-7.986,29.536,16.261,41.765,17.296,42.271c9.708,5.041,15.193,11.943,16.381,20.554
				c2.857,20.707-21.005,43.354-22.021,44.31C140.899,137.759,138.847,138.974,136.63,136.967z"/>
			<path d="M120.091,124.312c-1.289-0.119-2.318-1.146-2.713-2.379c-0.017-0.04-2.918-8.06-16.776-17.097l-3.669-2.448
				c-9.072-5.916-14.09-11.617-16.771-15.554L61.46,110.639c-1.195,1.521-3.395,1.785-4.915,0.59
				c-1.52-1.193-1.784-3.395-0.59-4.914l21.968-27.961c0.801-1.019,2.1-1.509,3.373-1.282c1.275,0.229,2.319,1.145,2.713,2.379
				c0.015,0.04,2.918,8.059,16.776,17.097l3.668,2.448c9.071,5.917,14.091,11.617,16.771,15.554l18.701-23.804
				c1.195-1.52,3.396-1.784,4.915-0.59c1.519,1.194,1.782,3.395,0.59,4.914l-21.969,27.961
				C122.794,123.884,121.847,124.475,120.091,124.312z"/>
		</g>
		<path d="M117.319,161.713c9.146,0,16.582-7.438,16.582-16.582c0-9.146-7.438-16.585-16.582-16.585
			c-9.144,0-16.583,7.438-16.583,16.585C100.735,154.274,108.175,161.713,117.319,161.713z M117.319,135.727
			c5.186,0,9.402,4.22,9.402,9.404c0,5.184-4.219,9.4-9.402,9.4c-5.186,0-9.403-4.218-9.403-9.4
			C107.916,139.946,112.134,135.727,117.319,135.727z"/>
		<path d="M84.07,72.713c9.144,0,16.582-7.438,16.582-16.582c0-9.146-7.438-16.585-16.582-16.585
			c-9.146,0-16.585,7.438-16.585,16.585C67.485,65.275,74.925,72.713,84.07,72.713z M84.07,46.727c5.184,0,9.401,4.219,9.401,9.404
			s-4.218,9.401-9.401,9.401c-5.187,0-9.404-4.217-9.404-9.401C74.667,50.946,78.884,46.727,84.07,46.727z"/>
	</g>
</g>
</svg>