<?xml version="1.0" encoding="iso-8859-1"?>
<!-- Uploaded to: SVG Repo, www.svgrepo.com, Generator: SVG Repo Mixer Tools -->
<!DOCTYPE svg PUBLIC "-//W3C//DTD SVG 1.1//EN" "http://www.w3.org/Graphics/SVG/1.1/DTD/svg11.dtd">
<svg fill="#0B1957" version="1.1" id="Capa_1" xmlns="http://www.w3.org/2000/svg" xmlns:xlink="http://www.w3.org/1999/xlink" 
	 width="800px" height="800px" viewBox="0 0 184.842 184.841"
	 xml:space="preserve">
<g>
	<g>
		<path d="M45.775,77.553c0.887-1.718,0.213-3.829-1.504-4.716c-1.719-0.886-3.828-0.213-4.717,1.505
			c-0.1,0.195-10.291,19.636-27.602,27.056c-1.777,0.762-2.6,2.817-1.838,4.596c0.568,1.328,1.859,2.123,3.219,2.123
			c0.459,0,0.928-0.092,1.377-0.285C34.308,99.433,45.317,78.442,45.775,77.553z"/>
		<path d="M108.764,177.964c-15.227-9.326-39.851-39.897-40.099-40.207c-1.211-1.51-3.414-1.75-4.92-0.539
			c-1.508,1.209-1.748,3.412-0.539,4.92c1.039,1.295,25.637,31.834,41.902,41.795c0.57,0.351,3.283,1.375,4.812-1.155
			C110.918,181.121,110.412,178.974,108.764,177.964z"/>
		<path d="M66.333,52.781c9.098,0,16.5-7.402,16.5-16.5c0-9.098-7.402-16.5-16.5-16.5c-9.098,0-16.5,7.402-16.5,16.5
			C49.833,45.379,57.234,52.781,66.333,52.781z M66.333,26.781c5.238,0,9.5,4.262,9.5,9.5c0,5.238-4.262,9.5-9.5,9.5
			c-5.238,0-9.5-4.262-9.5-9.5C56.833,31.043,61.094,26.781,66.333,26.781z"/>
		<path d="M173.281,62.851L71.615,0.516c-1.645-1.009-3.802-0.493-4.812,1.154c-1.011,1.648-0.494,3.803,1.154,4.813l63.21,38.756
			c-26.531,32.876-76.389,13.225-76.897,13.019c-1.077-0.438-2.306-0.311-3.271,0.339c-0.967,0.65-1.546,1.739-1.546,2.904V115.5
			c0,1.935,1.567,3.5,3.5,3.5c1.933,0,3.5-1.565,3.5-3.5V66.431c5.616,1.773,54.939,17.293,80.708-17.516l32.461,19.903
			c0.57,0.35,3.021,1.281,4.812-1.154C175.58,66.107,174.93,63.861,173.281,62.851z"/>
		<path d="M79.702,105.318V82.084c0-1.933-1.567-3.5-3.5-3.5c-1.933,0-3.5,1.567-3.5,3.5v23.249c0,0.06,0.003,0.139,0.006,0.195
			c0.035,0.707,0.618,17.354-20.575,20.854c-26.814,4.424-35.994,52.277-36.372,54.312c-0.353,1.899,0.908,3.694,2.803,4.08
			c1.995,0.407,3.768-1.117,4.08-2.804c2.323-12.52,12.354-45.67,30.629-48.686C79.464,128.966,79.75,107.613,79.702,105.318z"/>
	</g>
</g>
</svg>