<!DOCTYPE svg PUBLIC "-//W3C//DTD SVG 1.1//EN" "http://www.w3.org/Graphics/SVG/1.1/DTD/svg11.dtd">
<!-- Uploaded to: SVG Repo, www.svgrepo.com, Transformed by: SVG Repo Mixer Tools -->
<svg fill="#0B1957" height="800px" width="800px" version="1.1" id="Capa_1" xmlns="http://www.w3.org/2000/svg" xmlns:xlink="http://www.w3.org/1999/xlink" viewBox="0 0 202.83 202.83" xml:space="preserve" fill="#000000" stroke="#000000" stroke-width="0.00202828">
<g id="SVGRepo_bgCarrier" stroke-width="0"/>
<g id="SVGRepo_tracerCarrier" stroke-linecap="round" stroke-linejoin="round"/>
<g id="SVGRepo_iconCarrier"> <g> <g> <path style="fill:#010002;" d="M69.155,42.993c11.853,0,21.498-9.645,21.498-21.495C90.653,9.645,81.008,0,69.155,0 S47.657,9.645,47.657,21.498C47.657,33.348,57.302,42.993,69.155,42.993z M69.155,3.532c9.903,0,17.962,8.056,17.962,17.966 c0,9.906-8.06,17.962-17.962,17.962c-9.91,0-17.969-8.056-17.969-17.962S59.245,3.532,69.155,3.532z"/> <path style="fill:#010002;" d="M186.369,96.862l13.181-9.19c0.694-0.483,0.948-1.403,0.587-2.201 c-0.358-0.755-1.263-1.16-2.061-0.948c-0.361,0.093-36.458,9.924-48.658,12.419c-7.569,1.17-15.393,1.764-23.259,1.764 c-13.517,0-26.011-1.757-36.78-4.148c-2.72-7.544-3.89-15.164-3.386-22.683c5.035,1.897,10.096,3.743,15.69,5.773 c5.154,1.872,11.585,4.212,17.687,6.542c1.338,0.501,2.659,0.755,3.93,0.755c5.415,0,8.643-4.391,9.441-8.74 c0.902-4.856-0.977-10.819-7.183-13.188c-5.783-2.205-11.703-4.348-17.415-6.428l-0.569-0.2 c-9.326-3.393-18.971-6.9-28.291-10.722c-0.848-0.347-1.696-0.587-2.58-0.723c-1.127-0.565-2.337-1.031-3.597-1.374 c-4.273-1.181-9.505-0.587-13.904,1.542c-16.871,0.931-29.028-9.087-34.958-28.903C22.812,11.424,18.84,8.45,13.879,8.45 c-3.758,0-7.383,1.743-9.473,4.542C2.499,15.55,1.998,18.8,2.993,22.146c7.53,25.206,23.649,40.885,45.444,44.213 c-0.476,5.637-0.505,11.159-0.089,16.43l0.068,0.988l0.225,0.115l2.588,15.013l-0.233-0.115l0.562,2.015l0.225,1.317 c0.054,0.297,0.175,0.565,0.365,0.802l4.499,16.255c-6.521,5.476-15.203,14.154-17.1,26.92 c-2.194,14.741,4.627,28.534,11.202,40.291c2.387,4.259,6.206,6.603,10.762,6.603c4.899,0,9.881-2.885,12.39-7.168 c2.348-4.005,2.326-8.564-0.068-12.841L73.288,172c-3.633-6.488-7.397-13.199-7.609-20.46c-0.086-3.01,1.525-6.102,4.939-9.437 c10.021,21.376,24.726,39.16,47.57,57.569c2.566,2.065,5.572,3.157,8.693,3.157c5.97,0,11.939-4.151,13.886-9.663 c1.639-4.656,0.193-9.255-3.976-12.612c-17.798-14.33-35.567-31.107-45.111-56.657c-0.186-0.497-0.412-1.013-0.676-1.532 c0.938-1.525,1.575-3.403,1.958-5.086c8.722,1.882,16.989,2.806,25.381,2.806c13.435,0,27.113-2.112,44.449-4.785 c9.96-1.546,21.24-3.289,34.225-4.942c2.466,0.2,3.049-1.002,3.228-1.7C200.524,107.555,201.053,105.512,186.369,96.862z M88.76,116.348c0.254,0.057,0.494,0.129,0.744,0.193c-0.372,1.596-1.049,3.497-1.954,4.599l-0.795,0.973l0.662,1.066 c0.379,0.612,0.694,1.263,0.945,1.943c9.842,26.333,28.022,43.522,46.21,58.174c2.974,2.398,3.987,5.49,2.859,8.7 c-1.471,4.162-6.009,7.304-10.554,7.304c-2.333,0-4.513-0.795-6.481-2.366c-23.101-18.617-37.778-36.651-47.588-58.486 l-0.963-2.162l-1.782,1.546c-5.465,4.681-8.052,9.201-7.924,13.822c0.251,8.138,4.241,15.249,8.092,22.121l0.526,0.941 c1.75,3.132,1.782,6.449,0.089,9.326c-1.897,3.242-5.655,5.429-9.344,5.429c-3.217,0-5.941-1.707-7.677-4.792 c-6.578-11.774-12.83-24.415-10.801-38.061c1.782-12.007,10.504-20.356,16.903-25.574l1.188-0.977l-1.063-1.75l-3.611-13.052 c5.411,2.369,16.778,6.975,30.338,10.561C87.443,115.991,88.108,116.184,88.76,116.348z M13.876,11.975 c3.386,0,6.002,1.965,6.986,5.247c6.156,20.596,18.642,31.483,36.107,31.483c0.92,0,1.854-0.029,2.938-0.111l0.555-0.168 c3.607-1.847,8.206-2.419,11.699-1.457c1.113,0.304,2.183,0.727,3.293,1.288l0.472,0.14c0.698,0.089,1.356,0.268,2.015,0.537 c9.387,3.851,19.065,7.369,28.42,10.769l0.225,0.075c5.816,2.119,11.828,4.298,17.705,6.535c4.32,1.643,5.601,5.826,4.975,9.244 c-0.533,2.913-2.588,5.862-5.97,5.862c-0.841,0-1.736-0.183-2.673-0.537c-5.69-2.169-11.517-4.287-17.139-6.338l-0.594-0.222 c-6.331-2.301-12.046-4.381-17.819-6.578l-2.137-0.812l-0.243,2.276c-0.895,8.081-0.014,16.277,2.588,24.383 c-2.391-0.594-4.713-1.195-6.9-1.829c-15.64-4.674-26.036-9.917-26.591-10.207c-0.351-5.282-0.247-10.844,0.308-16.541 l0.168-1.714l-1.707-0.211c-21.183-2.577-36.88-17.479-44.181-41.951c-0.684-2.28-0.394-4.37,0.852-6.038 C8.665,13.174,11.21,11.975,13.876,11.975z M118.335,116.556c-9.341,0-18.499-1.12-28.409-3.565 c-0.451-0.107-0.909-0.222-1.36-0.336c-10.028-2.577-20.858-6.499-33.473-12.061L52.588,86c4.431,2.076,13.066,5.744,24.583,9.076 c3.282,0.981,6.785,1.95,10.479,2.842l3.25,0.777l-0.079-0.222c10.486,2.194,22.45,3.754,35.348,3.754 c8.049,0,16.069-0.601,23.875-1.814c8.518-1.739,28.194-6.925,39.206-9.863l-7.161,4.993c-0.501,0.344-0.787,0.913-0.759,1.521 c0.021,0.605,0.351,1.149,0.884,1.457c5.368,3.074,10.597,6.488,13.142,8.528c-12.598,1.589-23.416,3.264-33.104,4.756 C145.069,114.466,131.498,116.556,118.335,116.556z"/> </g> </g> </g>
</svg>