<?xml version="1.0" encoding="iso-8859-1"?>
<!-- Uploaded to: SVG Repo, www.svgrepo.com, Generator: SVG Repo Mixer Tools -->
<!DOCTYPE svg PUBLIC "-//W3C//DTD SVG 1.1//EN" "http://www.w3.org/Graphics/SVG/1.1/DTD/svg11.dtd">
<svg fill="#0B1957" version="1.1" id="Capa_1" xmlns="http://www.w3.org/2000/svg" xmlns:xlink="http://www.w3.org/1999/xlink" 
	 width="800px" height="800px" viewBox="0 0 174.198 174.198"
	 xml:space="preserve">
<g>
	<g>
		<path d="M78.024,51.205c8.914,0,16.167-7.253,16.167-16.167s-7.253-16.167-16.167-16.167s-16.167,7.253-16.167,16.167
			S69.11,51.205,78.024,51.205z M78.024,25.871c5.055,0,9.167,4.112,9.167,9.167s-4.112,9.167-9.167,9.167
			c-5.055,0-9.167-4.112-9.167-9.167S72.969,25.871,78.024,25.871z"/>
		<path d="M72.608,121.094c-7.896-1.51-14.714-2.812-17.167-6.517c-1.335-2.016-1.551-5.004-0.661-9.138
			c4.275-19.872,7.827-37.833,9.294-45.351c9.067,2.157,29.961,4.781,51.121-4.764c1.763-0.795,2.547-2.867,1.752-4.629
			c-0.795-1.764-2.866-2.547-4.631-1.752c-24.928,11.244-50.337,3.302-50.627,3.274c-1.8-0.171-3.429,1.055-3.768,2.827
			c-0.044,0.228-4.393,22.933-9.984,48.922c-1.307,6.07-0.761,10.808,1.669,14.477c4.08,6.16,12.24,7.72,21.689,9.523
			c18.212,3.479,38.855,7.426,42.582,43.1c0.188,1.8,1.922,3.3,3.845,3.117c1.926-0.183,3.318-1.922,3.118-3.844
			C116.571,129.495,91.161,124.639,72.608,121.094z"/>
		<path d="M69.346,132.242c-1.912-0.271-3.681,1.063-3.954,2.975c-0.036,0.254-3.846,25.336-24.32,31.12
			c-1.859,0.525-2.941,2.462-2.416,4.32c0.436,1.542,2.394,2.961,4.32,2.416c24.911-7.045,29.179-35.67,29.349-36.885
			C72.591,134.276,71.258,132.512,69.346,132.242z"/>
		<path d="M128.386,6.748c-4.624-5.37-12.49-9.402-20.707-4.615c-7.562,4.408-8.51,14.096-6.189,21.23
			c3.309,10.182,12.832,17.537,15.805,19.637l7.228,15.705c-13.222,9.414-41.059,9.859-41.25,9.843
			c-1.766-0.133-3.336,1.08-3.679,2.811l-8,40.333c-0.376,1.896,0.856,3.737,2.753,4.114c0.229,0.045,3.289,0.188,4.114-2.754
			l7.422-37.434c32.917-1.917,43.669-11.311,45.641-14.021c0.715-0.985,0.867-2.271,0.4-3.397l-8.677-19.006
			c-1.28-3.409-9.53-3.576-15.102-17.993c-1.438-3.724-1.438-10.398,3.059-13.021c5.318-3.099,9.725,0.636,11.879,3.137
			c5.854,6.796,6.484,17.305,4.691,22.277c-0.656,1.818,0.287,3.824,2.104,4.479c1.817,0.655,3.823-0.286,4.479-2.104
			C137.144,28.248,135.67,15.207,128.386,6.748z"/>
	</g>
</g>
</svg>