<?xml version="1.0" encoding="iso-8859-1"?>
<!-- Uploaded to: SVG Repo, www.svgrepo.com, Generator: SVG Repo Mixer Tools -->
<!DOCTYPE svg PUBLIC "-//W3C//DTD SVG 1.1//EN" "http://www.w3.org/Graphics/SVG/1.1/DTD/svg11.dtd">
<svg fill="#0B1957" version="1.1" id="Capa_1" xmlns="http://www.w3.org/2000/svg" xmlns:xlink="http://www.w3.org/1999/xlink" 
	 width="800px" height="800px" viewBox="0 0 175.391 175.391"
	 xml:space="preserve">
<g>
	<g>
		<path d="M123.864,49.195c9.099,0,16.5-7.402,16.5-16.501c0-9.098-7.401-16.5-16.5-16.5s-16.5,7.402-16.5,16.5
			S114.766,49.195,123.864,49.195z M123.864,23.194c5.238,0,9.5,4.262,9.5,9.5c0,5.239-4.262,9.501-9.5,9.501
			c-5.237,0-9.5-4.262-9.5-9.501C114.364,27.455,118.627,23.194,123.864,23.194z"/>
		<path d="M171.479,70.868l-16.13-26.355c-1.01-1.65-3.164-2.167-4.812-1.158c-1.647,1.009-2.166,3.164-1.158,4.812l16.168,26.417
			c0.033,0.055,0.068,0.109,0.105,0.163c0.044,0.064,4.395,6.485,2.051,13.979c-2.154,6.893-9.244,12.643-21.07,17.089
			c-36.666,13.793-23.521,50.78-23.385,51.153c0.521,1.414,2.735,2.676,4.493,2.074c1.829-0.628,2.742-2.683,2.074-4.494
			c-0.462-1.254-10.954-30.81,19.28-42.183c13.946-5.246,22.454-12.498,25.286-21.553C177.586,80.577,172.194,71.947,171.479,70.868
			z"/>
		<path d="M106.898,93.747c-0.224-0.068-11.124-3.537-23.518-11.145c9.941-2.746,33.241-10.035,48.301-21.613l15.884,25.294
			c0.665,1.06,2.845,2.44,4.824,1.104c1.603-1.082,2.132-3.188,1.104-4.825l-18-28.667c-0.547-0.872-1.45-1.458-2.47-1.604
			c-1.021-0.147-2.052,0.166-2.818,0.849c-17.121,15.218-53.888,24.397-54.334,24.414C65.24,69.731,54.85,58.867,50.194,44.51
			c-0.493-1.521-1.963-2.51-3.553-2.408c-1.596,0.102-2.921,1.278-3.218,2.85c-0.019,0.098-1.942,9.905-9.693,16.668
			C23.254,70.762,6.001,83.12,5.887,83.203c-3.193,2.187-8.258,8.714-4.631,17.791c0.324,0.894,5.498,8.481,13.28,8.119
			c3.044-0.144,6.441-0.687,10.147-2.052l21.5-7.5c1.825-0.637,2.789-2.633,2.152-4.457c-0.637-1.825-2.632-2.791-4.457-2.151
			l-21.558,7.521c-11.775,4.34-14.514-1.947-14.545-2.025c-2.425-6,1.629-9.15,2.124-9.51c0.718-0.514,17.698-12.676,28.432-22.042
			c4.154-3.625,6.934-7.869,8.761-11.568c16.002,31.896,55.906,44.543,57.738,45.108c1.848,0.572,3.805-0.465,4.375-2.311
			C109.777,96.277,108.744,94.317,106.898,93.747z"/>
	</g>
</g>
</svg>